<mxfile host="app.diagrams.net" agent="Mozilla/5.0 (Windows NT 10.0; Win64; x64) AppleWebKit/537.36 (KHTML, like Gecko) Chrome/134.0.0.0 Safari/537.36" version="26.1.3">
  <diagram name="Página-1" id="Fvc2R8cRGQqFgVzpQOgC">
    <mxGraphModel dx="880" dy="468" grid="1" gridSize="10" guides="1" tooltips="1" connect="1" arrows="1" fold="1" page="1" pageScale="1" pageWidth="827" pageHeight="1169" math="0" shadow="0">
      <root>
        <mxCell id="0" />
        <mxCell id="1" parent="0" />
        <mxCell id="zfCU6f84N-QHVGkMmx43-1" value="&lt;b&gt;Administrador&lt;/b&gt;&lt;div&gt;&lt;b&gt;&amp;nbsp;Data Center&lt;/b&gt;&lt;div&gt;&lt;br&gt;&lt;/div&gt;&lt;/div&gt;" style="shape=umlActor;verticalLabelPosition=bottom;verticalAlign=top;html=1;outlineConnect=0;" vertex="1" parent="1">
          <mxGeometry x="50" y="120" width="70" height="130" as="geometry" />
        </mxCell>
        <mxCell id="zfCU6f84N-QHVGkMmx43-2" value="" style="swimlane;startSize=0;" vertex="1" parent="1">
          <mxGeometry x="200" y="60" width="200" height="300" as="geometry">
            <mxRectangle x="200" y="80" width="50" height="40" as="alternateBounds" />
          </mxGeometry>
        </mxCell>
        <mxCell id="zfCU6f84N-QHVGkMmx43-17" style="edgeStyle=orthogonalEdgeStyle;rounded=0;orthogonalLoop=1;jettySize=auto;html=1;" edge="1" parent="zfCU6f84N-QHVGkMmx43-2" source="zfCU6f84N-QHVGkMmx43-3">
          <mxGeometry relative="1" as="geometry">
            <mxPoint x="100" y="-20" as="targetPoint" />
          </mxGeometry>
        </mxCell>
        <mxCell id="zfCU6f84N-QHVGkMmx43-3" value="&lt;font style=&quot;font-size: 15px;&quot;&gt;Monitorear Clima&lt;/font&gt;&lt;div&gt;&lt;font style=&quot;font-size: 15px;&quot;&gt;&lt;br&gt;&lt;/font&gt;&lt;div&gt;&lt;font style=&quot;font-size: 15px;&quot;&gt;&lt;br&gt;&lt;/font&gt;&lt;/div&gt;&lt;div&gt;&lt;font style=&quot;font-size: 15px;&quot;&gt;Ajustar Clima&lt;/font&gt;&lt;/div&gt;&lt;div&gt;&lt;font style=&quot;font-size: 15px;&quot;&gt;&lt;br&gt;&lt;/font&gt;&lt;/div&gt;&lt;div&gt;&lt;font style=&quot;font-size: 15px;&quot;&gt;&lt;br&gt;&lt;/font&gt;&lt;/div&gt;&lt;div&gt;&lt;font style=&quot;font-size: 15px;&quot;&gt;Guardar Histórico&lt;/font&gt;&lt;/div&gt;&lt;div&gt;&lt;font style=&quot;font-size: 15px;&quot;&gt;&lt;br&gt;&lt;/font&gt;&lt;/div&gt;&lt;div&gt;&lt;font style=&quot;font-size: 15px;&quot;&gt;&lt;br&gt;&lt;/font&gt;&lt;/div&gt;&lt;div&gt;&lt;font style=&quot;font-size: 15px;&quot;&gt;Enviar Alerta&lt;/font&gt;&lt;/div&gt;&lt;div&gt;&lt;font style=&quot;font-size: 15px;&quot;&gt;&lt;br&gt;&lt;/font&gt;&lt;/div&gt;&lt;div&gt;&lt;font style=&quot;font-size: 15px;&quot;&gt;&lt;br&gt;&lt;/font&gt;&lt;/div&gt;&lt;div&gt;&lt;font style=&quot;font-size: 15px;&quot;&gt;Consultar Histórico&lt;/font&gt;&lt;/div&gt;&lt;/div&gt;" style="text;html=1;align=center;verticalAlign=middle;resizable=0;points=[];autosize=1;strokeColor=none;fillColor=none;" vertex="1" parent="zfCU6f84N-QHVGkMmx43-2">
          <mxGeometry x="25" y="25" width="150" height="250" as="geometry" />
        </mxCell>
        <mxCell id="zfCU6f84N-QHVGkMmx43-11" style="edgeStyle=orthogonalEdgeStyle;rounded=0;orthogonalLoop=1;jettySize=auto;html=1;exitX=0.5;exitY=1;exitDx=0;exitDy=0;" edge="1" parent="1" source="zfCU6f84N-QHVGkMmx43-2" target="zfCU6f84N-QHVGkMmx43-2">
          <mxGeometry relative="1" as="geometry" />
        </mxCell>
        <mxCell id="zfCU6f84N-QHVGkMmx43-12" value="" style="endArrow=classic;html=1;rounded=0;" edge="1" parent="1" target="zfCU6f84N-QHVGkMmx43-3">
          <mxGeometry width="50" height="50" relative="1" as="geometry">
            <mxPoint x="120" y="210" as="sourcePoint" />
            <mxPoint x="170" y="160" as="targetPoint" />
          </mxGeometry>
        </mxCell>
        <mxCell id="zfCU6f84N-QHVGkMmx43-13" value="" style="endArrow=classic;html=1;rounded=0;entryX=0.083;entryY=0.15;entryDx=0;entryDy=0;entryPerimeter=0;" edge="1" parent="1" target="zfCU6f84N-QHVGkMmx43-3">
          <mxGeometry width="50" height="50" relative="1" as="geometry">
            <mxPoint x="120" y="210" as="sourcePoint" />
            <mxPoint x="250" y="194.5" as="targetPoint" />
          </mxGeometry>
        </mxCell>
        <mxCell id="zfCU6f84N-QHVGkMmx43-14" value="" style="endArrow=classic;html=1;rounded=0;entryX=0.083;entryY=0.35;entryDx=0;entryDy=0;entryPerimeter=0;" edge="1" parent="1" target="zfCU6f84N-QHVGkMmx43-3">
          <mxGeometry width="50" height="50" relative="1" as="geometry">
            <mxPoint x="120" y="209.5" as="sourcePoint" />
            <mxPoint x="240" y="209.5" as="targetPoint" />
          </mxGeometry>
        </mxCell>
        <mxCell id="zfCU6f84N-QHVGkMmx43-15" value="" style="endArrow=classic;html=1;rounded=0;entryX=0.167;entryY=0.75;entryDx=0;entryDy=0;entryPerimeter=0;" edge="1" parent="1" target="zfCU6f84N-QHVGkMmx43-3">
          <mxGeometry width="50" height="50" relative="1" as="geometry">
            <mxPoint x="120" y="210" as="sourcePoint" />
            <mxPoint x="260" y="190" as="targetPoint" />
          </mxGeometry>
        </mxCell>
        <mxCell id="zfCU6f84N-QHVGkMmx43-16" value="" style="endArrow=classic;html=1;rounded=0;entryX=0.017;entryY=0.93;entryDx=0;entryDy=0;entryPerimeter=0;" edge="1" parent="1" target="zfCU6f84N-QHVGkMmx43-3">
          <mxGeometry width="50" height="50" relative="1" as="geometry">
            <mxPoint x="120" y="210" as="sourcePoint" />
            <mxPoint x="270" y="270" as="targetPoint" />
          </mxGeometry>
        </mxCell>
        <mxCell id="zfCU6f84N-QHVGkMmx43-18" value="&lt;div&gt;&lt;div&gt;&lt;b&gt;Usuario Aplicación&amp;nbsp;&lt;/b&gt;&lt;/div&gt;&lt;/div&gt;&lt;div&gt;&lt;b&gt;Clima&lt;/b&gt;&lt;/div&gt;" style="shape=umlActor;verticalLabelPosition=bottom;verticalAlign=top;html=1;outlineConnect=0;" vertex="1" parent="1">
          <mxGeometry x="440" y="120" width="70" height="130" as="geometry" />
        </mxCell>
        <mxCell id="zfCU6f84N-QHVGkMmx43-21" value="" style="swimlane;startSize=0;" vertex="1" parent="1">
          <mxGeometry x="580" y="45" width="230" height="300" as="geometry">
            <mxRectangle x="200" y="80" width="50" height="40" as="alternateBounds" />
          </mxGeometry>
        </mxCell>
        <mxCell id="zfCU6f84N-QHVGkMmx43-23" value="&lt;span style=&quot;font-size: 15px;&quot;&gt;Acceder a la App&lt;/span&gt;&lt;div&gt;&lt;span style=&quot;font-size: 15px;&quot;&gt;&lt;br&gt;&lt;/span&gt;&lt;/div&gt;&lt;div&gt;&lt;span style=&quot;font-size: 15px;&quot;&gt;Seleccionar opción&amp;nbsp;&lt;/span&gt;&lt;/div&gt;&lt;div&gt;&lt;span style=&quot;font-size: 15px;&quot;&gt;&quot;consultar clima&quot;&lt;/span&gt;&lt;/div&gt;&lt;div&gt;&lt;span style=&quot;font-size: 15px;&quot;&gt;&lt;br&gt;&lt;/span&gt;&lt;/div&gt;&lt;div&gt;&lt;span style=&quot;font-size: 15px;&quot;&gt;El sistema obtiene la&lt;/span&gt;&lt;/div&gt;&lt;div&gt;&lt;span style=&quot;font-size: 15px;&quot;&gt;temperatura y humedad&amp;nbsp;&lt;/span&gt;&lt;/div&gt;&lt;div&gt;&lt;span style=&quot;font-size: 15px;&quot;&gt;actual de los&lt;/span&gt;&lt;/div&gt;&lt;div&gt;&lt;span style=&quot;font-size: 15px;&quot;&gt;sensores&lt;/span&gt;&lt;/div&gt;&lt;div&gt;&lt;span style=&quot;font-size: 15px;&quot;&gt;&lt;br&gt;&lt;/span&gt;&lt;/div&gt;&lt;div&gt;&lt;span style=&quot;font-size: 15px;&quot;&gt;El sistema muestra&lt;/span&gt;&lt;/div&gt;&lt;div&gt;&lt;span style=&quot;font-size: 15px;&quot;&gt;los valores en&lt;/span&gt;&lt;/div&gt;&lt;div&gt;&lt;span style=&quot;font-size: 15px;&quot;&gt;pantalla&lt;/span&gt;&lt;/div&gt;" style="text;html=1;align=center;verticalAlign=middle;resizable=0;points=[];autosize=1;strokeColor=none;fillColor=none;" vertex="1" parent="zfCU6f84N-QHVGkMmx43-21">
          <mxGeometry x="20" y="25" width="190" height="250" as="geometry" />
        </mxCell>
        <mxCell id="zfCU6f84N-QHVGkMmx43-24" value="" style="endArrow=classic;html=1;rounded=0;entryX=0.053;entryY=0.1;entryDx=0;entryDy=0;entryPerimeter=0;" edge="1" parent="1" target="zfCU6f84N-QHVGkMmx43-23">
          <mxGeometry width="50" height="50" relative="1" as="geometry">
            <mxPoint x="500" y="200" as="sourcePoint" />
            <mxPoint x="245" y="541.28" as="targetPoint" />
          </mxGeometry>
        </mxCell>
        <mxCell id="zfCU6f84N-QHVGkMmx43-25" value="" style="endArrow=classic;html=1;rounded=0;entryX=0.053;entryY=0.26;entryDx=0;entryDy=0;entryPerimeter=0;" edge="1" parent="1" target="zfCU6f84N-QHVGkMmx43-23">
          <mxGeometry width="50" height="50" relative="1" as="geometry">
            <mxPoint x="500" y="200" as="sourcePoint" />
            <mxPoint x="260" y="470" as="targetPoint" />
          </mxGeometry>
        </mxCell>
        <mxCell id="zfCU6f84N-QHVGkMmx43-26" value="" style="endArrow=classic;html=1;rounded=0;entryX=-0.021;entryY=0.504;entryDx=0;entryDy=0;entryPerimeter=0;" edge="1" parent="1" target="zfCU6f84N-QHVGkMmx43-23">
          <mxGeometry width="50" height="50" relative="1" as="geometry">
            <mxPoint x="500" y="200" as="sourcePoint" />
            <mxPoint x="260" y="510" as="targetPoint" />
          </mxGeometry>
        </mxCell>
        <mxCell id="zfCU6f84N-QHVGkMmx43-27" value="" style="endArrow=classic;html=1;rounded=0;entryX=-0.011;entryY=0.74;entryDx=0;entryDy=0;entryPerimeter=0;" edge="1" parent="1" target="zfCU6f84N-QHVGkMmx43-23">
          <mxGeometry width="50" height="50" relative="1" as="geometry">
            <mxPoint x="500" y="200" as="sourcePoint" />
            <mxPoint x="246" y="571" as="targetPoint" />
          </mxGeometry>
        </mxCell>
      </root>
    </mxGraphModel>
  </diagram>
</mxfile>
